<svg width="130" height="76" viewBox="0 0 130 76" fill="none" xmlns="http://www.w3.org/2000/svg">
<path d="M52.7936 0.0353088C52.2692 0.0681763 50.1085 0.216064 47.9689 0.363953C42.5149 0.725464 38.2566 1.202 36.5784 1.66211C33.306 2.54945 32.0683 3.4861 29.9287 6.67397C28.712 8.5144 28.2296 8.94164 22.8804 12.9183C18.706 16.0075 17.804 17.6508 17.0279 23.5993C16.8391 24.996 16.5454 26.8858 16.3566 27.7895C16.1678 28.6933 16 30.2051 16 31.1582C16 32.785 16.0629 33.0479 17.0908 35.562C18.7899 39.7358 18.8948 40.4753 18.4753 44.6655C18.0767 48.6586 18.1606 52.2244 18.6851 53.7526C18.8738 54.2949 19.4612 55.4287 19.9856 56.2668C20.7618 57.5156 21.2652 58.0579 22.6497 59.1589C25.7333 61.5909 28.5862 62.7083 34.9212 63.9571C39.3054 64.828 41.1304 65.4689 46.8151 68.2295C49.0177 69.2812 51.6608 70.5136 52.6887 70.9409C57.2617 72.847 62.3381 73.948 71.6728 75.0325C73.2251 75.2133 75.5746 75.5091 76.8961 75.6898C79.8539 76.1006 81.7208 76.1006 84.1751 75.7062C89.0208 74.9175 93.6567 72.8141 98.5653 69.1333C101.271 67.1121 108.131 61.2458 109.515 59.7833C111.068 58.1072 111.781 56.809 111.907 55.3959C112.033 53.917 111.823 53.424 110.145 51.0413C107.439 47.2126 107.522 45.7337 110.732 39.2922C113.06 34.5925 113.438 32.9493 112.578 31.0267C111.907 29.5478 110.585 28.1839 106.599 24.9139C102.152 21.2659 100.621 19.7048 98.9009 17.1414C97.2018 14.5615 96.2788 13.477 94.9153 12.4089C92.6918 10.667 90.4892 10.059 85.7274 9.87828C82.434 9.76325 79.686 9.43461 77.7562 8.95807C74.8613 8.21861 72.9315 7.21624 68.799 4.27485C65.5895 1.99076 63.1562 0.889793 60.1984 0.363953C58.6671 0.101036 54.5556 -0.0797195 52.7936 0.0353088ZM43.9833 3.3875C43.9833 3.4861 43.6476 4.09409 43.2281 4.75139C41.508 7.41343 38.9068 9.79612 37.3545 10.1083C36.4945 10.2891 34.8163 10.1412 34.166 9.81255C33.8304 9.64823 36.1798 6.09884 37.1657 5.31009C38.0258 4.61993 39.3683 4.12696 41.3192 3.74902C42.1583 3.60113 42.8715 3.42037 42.8925 3.35464C42.9973 3.15746 43.9833 3.19032 43.9833 3.3875ZM61.6039 3.60113C61.6039 3.634 61.3941 3.79832 61.1424 3.97907L60.6599 4.29128L61.0585 3.91334C61.4361 3.56826 61.6039 3.46967 61.6039 3.60113ZM64.7924 5.01431C65.6315 5.54015 67.1208 6.54252 68.1068 7.24911C70.2884 8.79375 71.9875 9.76325 73.7286 10.4534C74.4418 10.7328 75.0292 11.0285 75.0292 11.1107C75.0292 11.1764 74.6306 11.7187 74.1481 12.2774C73.1412 13.4441 71.6099 14.43 70.2254 14.808C69.2395 15.0709 67.1628 15.1531 67.3516 14.9066C67.4145 14.8408 67.0579 14.6765 66.5754 14.5779C64.5197 14.1014 62.6108 12.7868 61.6878 11.1929C60.7019 9.50034 60.8068 7.10121 61.9605 5.40868C62.422 4.7021 63.0303 4.0448 63.1982 4.0448C63.2191 4.0448 63.9533 4.47204 64.7924 5.01431ZM21.8945 21.5617C21.8316 21.611 21.6428 21.6274 21.496 21.5781C21.3281 21.5288 21.3911 21.4795 21.6218 21.4795C21.8526 21.4631 21.9784 21.5124 21.8945 21.5617ZM23.9083 22.5969C24.8313 23.4021 25.0411 23.6979 25.3138 24.6674C25.8592 26.59 24.3488 28.7097 22.0414 29.252C21.5799 29.367 21.5799 29.3506 21.8735 28.1675C22.0414 27.5102 22.2721 26.1627 22.377 25.1604C22.7126 22.449 22.7965 21.9561 22.9853 21.9561C23.0902 21.9561 23.5098 22.2518 23.9083 22.5969ZM38.9488 24.3552C39.1795 24.7988 39.0327 25.5712 38.718 25.5712C38.3195 25.5712 38.0258 24.766 38.2775 24.3387C38.5922 23.8129 38.6971 23.8293 38.9488 24.3552ZM105.635 27.8717C109.264 30.9281 109.725 31.569 109.599 33.4094C109.515 34.5432 109.306 35.0855 107.795 38.0926C105.823 42.0035 105.089 44.0576 104.942 45.9966L104.837 47.344H103.726C102.362 47.3276 100.852 46.8018 100.348 46.128C99.5722 45.0764 99.9708 43.2852 101.628 40.4424C102.488 38.98 102.593 38.6349 102.677 37.3696C102.74 36.5151 102.614 35.1512 102.404 33.9352C101.943 31.3882 102.047 28.6111 102.698 27.0501C103.096 26.0806 103.096 25.9655 102.782 25.7026C102.593 25.5383 102.509 25.4068 102.572 25.4068C102.635 25.4068 104.019 26.5242 105.635 27.8717ZM38.2566 25.9984C38.1936 26.0477 38.0048 26.0641 37.858 26.0148C37.6902 25.9655 37.7531 25.9162 37.9839 25.9162C38.2146 25.8998 38.3405 25.9491 38.2566 25.9984ZM54.5347 28.644C54.3878 28.6769 54.0942 28.6769 53.9054 28.644C53.6956 28.5947 53.8215 28.5619 54.1571 28.5619C54.5137 28.5619 54.6605 28.5947 54.5347 28.644ZM56.5904 29.1206C57.4295 29.4492 58.4154 30.4351 58.5622 31.0596C58.8559 32.2756 57.9749 33.4751 56.2967 34.1488C55.4786 34.4775 55.4577 34.4775 54.9123 34.1653C54.0102 33.6394 53.4019 32.5878 53.4019 31.5854C53.4019 30.6323 53.6956 30.0408 54.5976 29.2027C55.185 28.6604 55.4157 28.644 56.5904 29.1206ZM21.0554 29.4492C20.9925 29.4985 20.8037 29.5149 20.6569 29.4656C20.4891 29.4163 20.552 29.367 20.7827 29.367C21.0135 29.3506 21.1394 29.3999 21.0554 29.4492ZM54.6396 34.5597C54.4298 34.5925 54.0942 34.5925 53.9054 34.5597C53.6956 34.5104 53.8634 34.4775 54.262 34.4775C54.6605 34.4775 54.8283 34.5104 54.6396 34.5597ZM26.0899 38.7992C27.4744 39.2922 28.8589 40.2945 29.5721 41.3298C29.8867 41.7735 30.4741 43.1538 30.8727 44.4191C31.2712 45.6679 31.7956 47.229 32.0264 47.9027C32.6138 49.5952 32.5928 52.1751 32.0054 53.8348C31.5439 55.1494 30.0336 57.5485 29.1735 58.3537C28.8799 58.6166 28.6701 58.7645 28.712 58.6823C28.754 58.5837 28.2715 58.1565 27.6842 57.7128C25.4816 56.1189 24.223 54.0648 23.8244 51.4521C23.5937 50.1047 23.6146 49.2337 23.9503 45.9308C24.3069 42.25 24.3069 39.5222 23.9293 38.5691C23.7825 38.2076 23.8244 38.1912 24.3908 38.2898C24.7264 38.3555 25.4816 38.5856 26.0899 38.7992ZM76.0151 47.8534C76.6444 48.0999 77.5254 48.6257 78.1337 49.1516C79.6651 50.4662 81.7418 54.032 81.7418 55.363C81.7418 56.1518 80.8188 57.4828 79.728 58.2715C78.5533 59.126 76.078 60.0627 74.6726 60.1941C71.9246 60.4406 68.841 58.2387 67.5823 55.1165C66.5335 52.5202 67.016 50.7455 69.1766 49.1516C70.1835 48.4121 72.1343 47.5905 72.8895 47.5905C73.2042 47.5905 73.2042 47.5576 72.9315 47.4262C72.2602 47.0975 74.9662 47.4755 76.0151 47.8534ZM100.6 58.5509C101.649 58.8795 102.656 59.5204 103.285 60.2434L103.81 60.8843L102.173 62.3796C100.516 63.875 99.8659 64.1872 98.7961 63.9735C98.5863 63.9243 98.7961 63.8914 99.2575 63.875L100.076 63.8585L99.5722 63.5792C98.7121 63.1191 98.3346 62.6754 97.978 61.7388C97.5584 60.6706 97.7052 59.7833 98.4394 58.7974C99.0058 58.0415 99.0268 58.0415 100.6 58.5509ZM57.2617 64.3022C57.1148 64.3351 56.8631 64.3351 56.7373 64.3022C56.5904 64.2529 56.6953 64.22 56.989 64.22C57.2826 64.22 57.3875 64.2529 57.2617 64.3022ZM58.8979 65.5511C59.1286 66.2248 59.0028 67.7037 58.6462 68.8211C58.4574 69.4127 58.4154 69.4291 57.87 69.2483C57.3875 69.084 54.1151 67.6873 53.8634 67.5394C53.8215 67.5065 53.9054 67.2765 54.0312 67.0135C54.3669 66.3891 56.045 65.1238 57.0939 64.713C57.849 64.4172 57.9749 64.4008 58.3105 64.6308C58.4993 64.7787 58.772 65.1895 58.8979 65.5511ZM85.6015 68.6896C85.9582 68.9854 86.6294 69.577 87.0699 70.0042C87.5104 70.4315 88.2027 70.908 88.5803 71.0559C88.9788 71.2038 89.2935 71.3681 89.2935 71.4338C89.2935 71.5817 86.6923 72.4691 84.9932 72.8799C82.6228 73.455 81.3642 73.4714 78.2177 72.9949C76.7073 72.7649 75.2179 72.5677 74.9243 72.5677C74.6306 72.5677 74.3998 72.5019 74.3998 72.4198C74.3998 72.0911 76.2458 71.0559 78.1547 70.2836C80.0007 69.5605 83.6507 68.476 84.4478 68.4431C84.6366 68.4267 84.5527 68.361 84.259 68.2953L83.7346 68.1638L84.3429 68.1474C84.7625 68.1309 85.1191 68.2953 85.6015 68.6896Z" fill="#FFA500"/>
<rect x="0.5" y="24.5" width="129" height="26" rx="13" fill="#242C4C"/>
<rect x="0.5" y="24.5" width="129" height="26" rx="13" stroke="#FFA500"/>
<path d="M52.21 33.25H47.85V45.5H45.16V33.25H40.8V31.04H52.21V33.25ZM56.8022 33.18V37.19H61.8622V39.26H56.8022V43.35H63.2222V45.5H54.1022V31.04H63.2222V33.18H56.8022ZM77.3561 45.5H74.6761C74.4894 45.5 74.3394 45.4533 74.2261 45.36C74.1194 45.2667 74.0328 45.16 73.9661 45.04L70.6161 39.49C70.5628 39.6567 70.4994 39.8 70.4261 39.92L67.2161 45.04C67.1361 45.1533 67.0428 45.26 66.9361 45.36C66.8361 45.4533 66.7028 45.5 66.5361 45.5H64.0261L68.8261 38.06L64.2161 31.04H66.8961C67.0828 31.04 67.2161 31.0667 67.2961 31.12C67.3828 31.1667 67.4628 31.2467 67.5361 31.36L70.8261 36.66C70.8928 36.4933 70.9728 36.3267 71.0661 36.16L74.0861 31.41C74.1594 31.2833 74.2394 31.19 74.3261 31.13C74.4128 31.07 74.5228 31.04 74.6561 31.04H77.2261L72.5761 37.95L77.3561 45.5ZM89.1241 33.25H84.7641V45.5H82.0741V33.25H77.7141V31.04H89.1241V33.25Z" fill="#FFA500"/>
</svg>
